<?xml version="1.0" encoding="utf-8"?>
<!-- Uploaded to: SVG Repo, www.svgrepo.com, Generator: SVG Repo Mixer Tools -->
<svg width="800px" height="800px" viewBox="0 0 1024 1024" class="icon"  version="1.1" xmlns="http://www.w3.org/2000/svg"><path d="M918.3 74.7c-13.3-11.2-30.8-15.9-47.9-12.8l-503.3 88.8c-28.1 5-48.5 29.3-48.5 57.8v500.8c-24.9-21.2-57.1-34.1-92.3-34.1-78.6 0-142.6 64-142.6 142.6s64 142.6 142.6 142.6 142.6-64 142.6-142.6V369.2L889 277.4v331.2c-24.9-21.2-57.1-34.1-92.3-34.1-78.6 0-142.6 64-142.6 142.6s64 142.6 142.6 142.6 142.6-64 142.6-142.6V119.7c0-17.4-7.6-33.8-21-45zM226.3 910c-50.9 0-92.3-41.4-92.3-92.3s41.4-92.3 92.3-92.3 92.3 41.4 92.3 92.3-41.4 92.3-92.3 92.3z m142.6-591.9V208.5c0-4.1 2.9-7.6 6.9-8.3l503.3-88.8c3.4-0.5 5.7 0.9 6.8 1.9 1.1 0.9 3 3 3 6.4v106.7l-520 91.7z m427.8 491.3c-50.9 0-92.3-41.4-92.3-92.3s41.4-92.3 92.3-92.3 92.3 41.4 92.3 92.3-41.4 92.3-92.3 92.3z" fill="#3CB87F" /></svg>