<svg xmlns="http://www.w3.org/2000/svg"  viewBox="0 0 64 64" width="64px" height="64px"><linearGradient id="inB6EbnbtqZu6sCyi_JgFa" x1="25" x2="25" y1="28" y2="17.328" gradientTransform="matrix(1 0 0 -1 0 64)" gradientUnits="userSpaceOnUse"><stop offset="0" stop-color="#6dc7ff"/><stop offset="1" stop-color="#e6abff"/></linearGradient><path fill="url(#inB6EbnbtqZu6sCyi_JgFa)" d="M25,36.999c-2.209,0-4,1.791-4,4s1.791,4,4,4s4-1.791,4-4S27.209,36.999,25,36.999z"/><linearGradient id="inB6EbnbtqZu6sCyi_JgFb" x1="40" x2="40" y1="57.001" y2="5.913" gradientTransform="matrix(1 0 0 -1 0 64)" gradientUnits="userSpaceOnUse"><stop offset="0" stop-color="#1a6dff"/><stop offset="1" stop-color="#c822ff"/></linearGradient><path fill="url(#inB6EbnbtqZu6sCyi_JgFb)" d="M40,18.999c-3.309,0-6,2.691-6,6s2.691,6,6,6s6-2.691,6-6S43.309,18.999,40,18.999z M40,28.999c-2.206,0-4-1.794-4-4s1.794-4,4-4s4,1.794,4,4S42.206,28.999,40,28.999z"/><linearGradient id="inB6EbnbtqZu6sCyi_JgFc" x1="32" x2="32" y1="4.917" y2="60.262" gradientUnits="userSpaceOnUse"><stop offset="0" stop-color="#1a6dff"/><stop offset="1" stop-color="#c822ff"/></linearGradient><path fill="url(#inB6EbnbtqZu6sCyi_JgFc)" d="M32,6C17.664,6,6,17.663,6,32s11.664,26,26,26s26-11.663,26-26S46.336,6,32,6z M37.455,34.658	l-4.917,3.688c-0.91-2.575-3.096-4.549-5.8-5.151l3.649-5.473C31.347,31.107,34.045,33.758,37.455,34.658z M32,24.999	c0-4.411,3.589-8,8-8s8,3.589,8,8c0,4.411-3.589,8-8,8S32,29.41,32,24.999z M31,40.999c0,3.309-2.691,6-6,6s-6-2.691-6-6	c0-3.309,2.691-6,6-6S31,37.69,31,40.999z M17.008,40.836L8.72,37.833C8.252,35.964,8,34.011,8,32c0-0.27,0.012-0.538,0.02-0.806	l11.36,4.12C17.949,36.729,17.052,38.679,17.008,40.836z M32,56c-10.345,0-19.182-6.58-22.547-15.774l7.827,2.836	c0.914,3.413,4.024,5.937,7.72,5.937c4.411,0,8-3.589,8-8c0-0.163-0.015-0.322-0.024-0.482l7.382-5.536	C45.705,34.791,50,30.392,50,24.999c0-5.514-4.486-10-10-10c-5.404,0-9.808,4.311-9.983,9.672l-5.57,8.356	c-1.116,0.077-2.169,0.38-3.113,0.87L8.178,29.123C9.605,17.242,19.741,8,32,8c13.233,0,24,10.767,24,24C56,45.233,45.233,56,32,56z"/></svg>